<svg width="116" height="116" fill="none" xmlns="http://www.w3.org/2000/svg"><g filter="url(#filter0_d)"><path d="M58 7l2.882 5.19 3.51-4.788 2.209 5.511 4.082-4.31 1.5 5.744 4.591-3.766.77 5.887 5.025-3.16.025 5.937 5.383-2.505-.72 5.893 5.655-1.81-1.452 5.756 5.836-1.088-2.162 5.53 5.927-.348-2.839 5.215 5.924.397-3.469 4.818 5.827 1.137-4.046 4.345 5.639 1.859-4.559 3.803 5.361 2.55L103.9 58l4.999 3.202-5.361 2.55 4.559 3.804-5.639 1.859 4.046 4.345-5.827 1.137 3.469 4.818-5.924.397 2.839 5.215-5.927-.348 2.162 5.53-5.836-1.088 1.452 5.756-5.654-1.81.72 5.893-5.383-2.505-.026 5.937-5.026-3.16-.769 5.887-4.59-3.766-1.5 5.745-4.083-4.311-2.209 5.511-3.51-4.789L58 109l-2.882-5.191-3.51 4.789-2.209-5.511-4.082 4.311-1.5-5.745-4.591 3.766-.77-5.887-5.025 3.16-.025-5.937-5.383 2.505.72-5.893-5.655 1.81 1.452-5.756-5.836 1.088 2.162-5.53-5.927.348 2.838-5.215-5.923-.397 3.47-4.818-5.828-1.137 4.046-4.345-5.639-1.859 4.559-3.803-5.361-2.55L12.1 58l-5-3.202 5.362-2.55-4.559-3.804 5.639-1.859-4.046-4.345 5.827-1.137-3.47-4.818 5.925-.397-2.839-5.215 5.927.348-2.162-5.53 5.836 1.088-1.452-5.756 5.654 1.81-.719-5.893 5.383 2.505.025-5.937 5.026 3.16.769-5.887 4.59 3.766 1.5-5.745 4.083 4.311 2.209-5.51 3.51 4.788L58 7z" fill="url(#paint0_linear)"/></g><defs><filter id="filter0_d" x=".101" y="0" width="115.799" height="116" filterUnits="userSpaceOnUse" color-interpolation-filters="sRGB"><feFlood flood-opacity="0" result="BackgroundImageFix"/><feColorMatrix in="SourceAlpha" values="0 0 0 0 0 0 0 0 0 0 0 0 0 0 0 0 0 0 127 0"/><feOffset/><feGaussianBlur stdDeviation="3.5"/><feColorMatrix values="0 0 0 0 0 0 0 0 0 0 0 0 0 0 0 0 0 0 0.4 0"/><feBlend in2="BackgroundImageFix" result="effect1_dropShadow"/><feBlend in="SourceGraphic" in2="effect1_dropShadow" result="shape"/></filter><linearGradient id="paint0_linear" x1="26.576" y1="7" x2="70.879" y2="109" gradientUnits="userSpaceOnUse"><stop stop-color="#FF896F"/><stop offset="1" stop-color="#FF3E13"/></linearGradient></defs></svg>