<svg width="47" height="98" fill="none" xmlns="http://www.w3.org/2000/svg"><path d="M40.015 8.14H6.985a.765.765 0 0 1-.681-1.11 31.84 31.84 0 0 1 3.62-5.762.764.764 0 0 1 .582-.268h25.987a.765.765 0 0 1 .583.268 31.886 31.886 0 0 1 3.62 5.76.765.765 0 0 1-.68 1.111l-.001.002zM8.253 6.613h30.493a31.691 31.691 0 0 0-2.62-4.083H10.874a31.711 31.711 0 0 0-2.62 4.083h-.001z" fill="#FAA7E2" stroke="#FFABE7"/><path d="M34.372 97.337H26.1a.765.765 0 0 1-.764-.765V30.749a1.835 1.835 0 1 0-3.667 0v65.823a.765.765 0 0 1-.765.765h-8.276a.765.765 0 0 1-.754-.636c-.053-.313-5.377-31.523-9.863-55.806C-.367 28.03 1.898 17.96 4.216 11.778c2.52-6.726 5.58-10.357 5.708-10.51A.765.765 0 0 1 10.506 1h25.987a.764.764 0 0 1 .582.268c.13.153 3.188 3.784 5.709 10.51 2.318 6.181 4.583 16.251 2.206 29.116-4.487 24.283-9.81 55.493-9.863 55.805a.765.765 0 0 1-.755.638zm-7.508-1.53h6.865c.782-4.575 5.625-32.82 9.759-55.19C47.57 18.515 37.72 4.604 36.124 2.529H10.875C9.279 4.604-.571 18.515 3.513 40.617c4.134 22.37 8.977 50.615 9.76 55.19h6.863V30.75a3.363 3.363 0 1 1 6.725 0l.003 65.058z" fill="#FAA7E2" stroke="#FFABE7"/><path d="M12.184 53.29a.765.765 0 0 1-.653-.366L1.45 36.404a.765.765 0 0 1 1.306-.797l10.08 16.52a.764.764 0 0 1-.653 1.164zm22.631 0a.765.765 0 0 1-.652-1.162l10.08-16.521a.767.767 0 0 1 1.28-.062.765.765 0 0 1 .025.858l-10.08 16.52a.765.765 0 0 1-.653.367z" fill="#FAA7E2" stroke="#FFABE7"/></svg>