<svg width="67" height="67" fill="none" xmlns="http://www.w3.org/2000/svg"><path d="M65.358 1.626a5.64 5.64 0 0 0-2.522-1.44A5.203 5.203 0 0 0 61.416 0H16.75a7.826 7.826 0 0 0-7.817 7.817v48.016H1.117C.5 55.833 0 56.333 0 56.95v2.233A7.826 7.826 0 0 0 7.817 67h44.666a5.59 5.59 0 0 0 5.584-5.583v-50.25h7.816c.617 0 1.117-.5 1.117-1.117V5.583a5.602 5.602 0 0 0-1.642-3.957zM7.817 64.766a5.59 5.59 0 0 1-5.584-5.583v-1.116h42.434v1.116a7.795 7.795 0 0 0 2.345 5.584H7.817zM56.864 2.37c-.066.092-.123.19-.183.288a5.477 5.477 0 0 0-.46.915c-.082.217-.15.438-.206.663-.027.105-.059.207-.08.315-.066.34-.1.686-.102 1.032v55.834c0 1.85-1.5 3.35-3.35 3.35a5.59 5.59 0 0 1-5.583-5.584V56.95c0-.617-.5-1.117-1.117-1.117H11.167V7.817a5.59 5.59 0 0 1 5.583-5.584h40.2c-.031.043-.055.093-.086.137zm7.902 6.563h-6.7v-3.35c0-1.85 1.5-3.35 3.35-3.35.284-.002.566.036.84.112.575.15 1.1.448 1.526.864a3.37 3.37 0 0 1 .984 2.374v3.35z" fill="#FFABE7"/><path d="M33.5 13.4a7.817 7.817 0 0 0-7.817 7.817 7.826 7.826 0 0 0 7.816 7.817 7.817 7.817 0 1 0 0-15.634zm0 13.4a5.583 5.583 0 0 1-5.584-5.583 5.59 5.59 0 0 1 5.583-5.583 5.583 5.583 0 0 1 0 11.166z" fill="#FFABE7"/><path d="M50.17 41.385a1.118 1.118 0 0 0-.149-.495l-6.537-11.32a2.31 2.31 0 0 0 .67-.606 3.745 3.745 0 0 0 .284-2.96 3.787 3.787 0 0 1-.112-1.266c.216-.341.485-.645.797-.901a3.797 3.797 0 0 0 1.553-2.62 3.8 3.8 0 0 0-1.546-2.62 3.801 3.801 0 0 1-.796-.9 3.787 3.787 0 0 1 .112-1.267 3.743 3.743 0 0 0-.284-2.96 3.762 3.762 0 0 0-2.748-1.186 3.871 3.871 0 0 1-1.215-.282 3.823 3.823 0 0 1-.629-1.06 3.782 3.782 0 0 0-1.994-2.26 3.651 3.651 0 0 0-2.872.642c-.37.236-.777.406-1.205.503a3.782 3.782 0 0 1-1.2-.503 3.654 3.654 0 0 0-2.872-.642 3.774 3.774 0 0 0-1.995 2.262c-.15.384-.363.742-.628 1.058-.389.16-.8.253-1.22.28-1.04 0-2.033.43-2.745 1.188a3.745 3.745 0 0 0-.283 2.96c.108.413.146.84.111 1.266-.216.34-.484.645-.796.901a3.796 3.796 0 0 0-1.548 2.62c.127 1.05.687 2 1.545 2.62.312.256.58.56.796.9.034.426-.003.854-.112 1.267a3.743 3.743 0 0 0 .284 2.96c.182.245.412.452.676.607l-6.54 11.321a1.117 1.117 0 0 0 .9 1.675l4.434.269 2.44 3.699c.208.314.56.501.936.5h.034c.387-.013.74-.224.933-.56l6.85-11.858 6.85 11.859c.193.335.546.546.933.558h.034c.375 0 .725-.188.932-.501l2.44-3.7 4.433-.268a1.117 1.117 0 0 0 1.05-1.18zm-24.55 2.409l-1.373-2.083 1.882-3.266-1.934-1.117-1.887 3.269-2.496-.152 5.93-10.274a3.18 3.18 0 0 1 1.06.257c.265.317.477.675.628 1.06a3.781 3.781 0 0 0 1.994 2.26c.224.074.458.111.693.112a3.505 3.505 0 0 0 1.463-.39l-5.96 10.324zm5.621-12.651a3.675 3.675 0 0 1-1.123.485 3.526 3.526 0 0 1-.67-1.1 4.789 4.789 0 0 0-1.33-1.899 4.809 4.809 0 0 0-2.233-.686 3.797 3.797 0 0 1-1.229-.285 3.687 3.687 0 0 1 .104-1.252 4.85 4.85 0 0 0 .036-2.355 4.713 4.713 0 0 0-1.39-1.83c-.276-.266-.85-.81-.85-1.004 0-.193.574-.738.85-1.005a4.708 4.708 0 0 0 1.382-1.831 4.857 4.857 0 0 0-.035-2.353 3.846 3.846 0 0 1-.111-1.245c.392-.17.811-.269 1.238-.293a4.802 4.802 0 0 0 2.234-.688 4.782 4.782 0 0 0 1.328-1.898c.155-.4.377-.771.657-1.097h.023c.395.106.77.269 1.117.484a4.905 4.905 0 0 0 2.26.77 4.903 4.903 0 0 0 2.258-.77 3.973 3.973 0 0 1 1.123-.485c.29.323.517.696.67 1.1a4.788 4.788 0 0 0 1.33 1.899 4.81 4.81 0 0 0 2.234.686c.422.026.837.122 1.228.285.037.42.002.844-.104 1.252a4.854 4.854 0 0 0-.035 2.355 4.713 4.713 0 0 0 1.39 1.829c.276.262.85.807.85 1.005 0 .198-.574.738-.85 1.005a4.709 4.709 0 0 0-1.383 1.831 4.857 4.857 0 0 0 .035 2.353c.105.406.143.827.112 1.245-.393.17-.812.269-1.239.293a4.803 4.803 0 0 0-2.233.688 4.782 4.782 0 0 0-1.329 1.898c-.154.4-.376.771-.656 1.096a3.59 3.59 0 0 1-1.137-.48 4.904 4.904 0 0 0-2.264-.773 4.905 4.905 0 0 0-2.258.77zm13.447 9.454l-1.887-3.269-1.934 1.117 1.885 3.266-1.374 2.083-5.957-10.316a2.874 2.874 0 0 0 2.15.273 3.775 3.775 0 0 0 1.995-2.26c.152-.386.366-.743.633-1.06a3.18 3.18 0 0 1 1.059-.256l5.93 10.273-2.5.149z" fill="#FFABE7"/></svg>