<svg width="67" height="67" fill="none" xmlns="http://www.w3.org/2000/svg"><path d="M0 63.65C0 65.5 1.5 67 3.35 67h60.3a3.35 3.35 0 1 0 0-6.7h-2.381l3.022-4.532a3.35 3.35 0 0 0-.641-6.635h-6.7v-4.467h2.233a1.117 1.117 0 0 0 .858-1.831l-5.584-6.7a1.154 1.154 0 0 0-1.715 0l-5.583 6.7a1.117 1.117 0 0 0 .858 1.831h2.233v4.467h-13.4v-4.467h2.233a1.117 1.117 0 0 0 .858-1.831l-5.583-6.7a1.154 1.154 0 0 0-1.716 0l-5.583 6.7a1.117 1.117 0 0 0 .858 1.831h2.233v4.467h-13.4v-4.467h2.233a1.117 1.117 0 0 0 .858-1.831l-5.583-6.7a1.153 1.153 0 0 0-1.715 0l-5.584 6.7a1.117 1.117 0 0 0 .858 1.831h2.233v4.467h-6.7a3.35 3.35 0 1 0 0 6.7h2.38l-3.02 4.53A3.35 3.35 0 0 0 0 63.65zm64.766 0c0 .616-.5 1.116-1.116 1.116H3.35a1.117 1.117 0 0 1 0-2.234h60.3c.616 0 1.116.5 1.116 1.117zm-47.869-7.817l-2.978 4.466h-2.903l2.978-4.466h2.904zm33.205 4.466l2.979-4.466h2.903l-2.978 4.466h-2.904zm-2.68 0H44.52l2.978-4.466h2.904l-2.979 4.466zm-5.583 0h-2.903l2.978-4.466h2.903l-2.978 4.466zm-5.583 0h-2.903l2.978-4.466h2.903l-2.978 4.466zm-5.583 0h-2.904l2.978-4.466h2.904l-2.978 4.466zm-5.584 0h-2.903l2.978-4.466h2.903l-2.978 4.466zm-5.583 0h-2.903l2.978-4.466h2.903l-2.978 4.466zm36.18 0l2.978-4.466h2.903l-2.978 4.466h-2.903zm-4.32-17.866h-.965l3.199-3.84 3.199 3.84h-.966c-.617 0-1.116.5-1.116 1.116v5.584h-2.234v-5.584c0-.616-.5-1.116-1.116-1.116zm-20.1 0h-.965l3.199-3.84 3.2 3.84h-.967c-.616 0-1.116.5-1.116 1.116v5.584h-2.234v-5.584c0-.616-.5-1.116-1.116-1.116zm-20.1 0h-.965l3.2-3.84 3.198 3.84h-.966c-.616 0-1.116.5-1.116 1.116v5.584h-2.233v-5.584c0-.616-.5-1.116-1.117-1.116zm-8.932 10.05c0-.617.5-1.117 1.116-1.117h60.3a1.117 1.117 0 1 1 0 2.233H3.35c-.617 0-1.116-.5-1.116-1.116zm9.08 3.35l-2.978 4.466H5.433l2.978-4.466h2.903zM33.5 33.5c6.78-.009 12.275-5.503 12.283-12.284C45.783 10.79 34.718.71 34.247.286a1.117 1.117 0 0 0-1.494 0c-.471.424-11.536 10.503-11.536 20.93.008 6.78 5.503 12.275 12.283 12.283zm0-30.837c2.447 2.42 10.05 10.59 10.05 18.553 0 5.55-4.5 10.05-10.05 10.05-5.55 0-10.05-4.5-10.05-10.05 0-7.953 7.606-16.13 10.05-18.553z" fill="#FFABE7"/><path d="M33.5 29.033a1.117 1.117 0 1 0 0-2.234 5.59 5.59 0 0 1-5.583-5.583 1.117 1.117 0 0 0-2.234 0 7.825 7.825 0 0 0 7.817 7.817zM8.934 33.5a9.025 9.025 0 0 0 8.933-9.093c0-7.583-7.844-14.873-8.179-15.18a1.117 1.117 0 0 0-1.51 0C7.845 9.535 0 16.825 0 24.408A9.025 9.025 0 0 0 8.934 33.5zm0-21.878c1.898 1.96 6.7 7.451 6.7 12.785a6.788 6.788 0 0 1-6.7 6.86 6.788 6.788 0 0 1-6.7-6.86c0-5.323 4.801-10.823 6.7-12.785z" fill="#FFABE7"/><path d="M8.934 29.033a1.117 1.117 0 1 0 0-2.234A2.32 2.32 0 0 1 6.7 24.406a1.117 1.117 0 0 0-2.233 0 4.553 4.553 0 0 0 4.467 4.627zM58.066 33.5A9.025 9.025 0 0 0 67 24.406c0-7.583-7.844-14.873-8.179-15.18a1.117 1.117 0 0 0-1.51 0c-.334.307-8.178 7.594-8.178 15.18a9.025 9.025 0 0 0 8.933 9.092zm0-21.878c1.899 1.96 6.7 7.451 6.7 12.785a6.7 6.7 0 1 1-13.4 0c0-5.323 4.802-10.823 6.7-12.785z" fill="#FFABE7"/><path d="M58.066 29.033a1.117 1.117 0 1 0 0-2.234 2.32 2.32 0 0 1-2.233-2.393 1.117 1.117 0 0 0-2.233 0 4.552 4.552 0 0 0 4.466 4.627z" fill="#FFABE7"/></svg>