<svg width="67" height="62" fill="none" xmlns="http://www.w3.org/2000/svg"><path d="M49.552 0C42.12 0 35.982 6.903 33.5 10.16 31.018 6.904 24.88 0 17.448 0 7.828 0 0 8.845 0 19.716c0 5.931 2.354 11.458 6.475 15.241.06.104.133.2.22.285l25.82 25.767a1.392 1.392 0 0 0 1.972-.001l26.679-26.67.275-.267c.218-.206.434-.414.675-.681.1-.1.184-.212.248-.333C65.356 29.393 67 24.667 67 19.717 67 8.844 59.173 0 49.552 0zm10.49 31.487a1.31 1.31 0 0 0-.106.141c-.13.15-.274.283-.415.418L33.499 58.048 8.986 33.584a1.4 1.4 0 0 0-.325-.415c-3.73-3.258-5.87-8.161-5.87-13.453 0-9.332 6.575-16.924 14.657-16.924 7.99 0 14.81 10.422 14.878 10.527.516.796 1.832.796 2.348 0 .068-.105 6.888-10.527 14.878-10.527 8.082 0 14.656 7.592 14.656 16.924 0 4.398-1.48 8.578-4.167 11.77z" fill="#FFABE7"/></svg>