<svg width="106" height="105" fill="none" xmlns="http://www.w3.org/2000/svg"><circle cx="53.201" cy="52.5" r="52.5" fill="#fff"/><path d="M11.179 52.17v.254c0 23.294 18.905 42.199 42.199 42.199 23.294 0 42.2-18.905 42.2-42.2v-.252h-84.4z" fill="#234770"/><path d="M95.324 52.297h-42.2V10.309c6.373 0 12.407 1.392 17.809 3.924 2.32 1.055 4.515 2.363 6.583 3.798a40.894 40.894 0 0 1 4.895 4.051 42.93 42.93 0 0 1 3.502 3.798 44.563 44.563 0 0 1 2.912 4.052 55.21 55.21 0 0 1 2.152 3.797c.676 1.309 1.224 2.659 1.773 4.052.464 1.223.844 2.532 1.224 3.797.844 3.503 1.35 7.048 1.35 10.719z" fill="#A32121"/><path d="M98.742 45.756H53.125v3.798h45.617v-3.798zm-4.811-4.051H53.125v-3.797h39.583c.464 1.223.886 2.49 1.223 3.797zm-2.954-7.892H53.125v-3.797h35.7c.802 1.223 1.477 2.49 2.152 3.797zm-5.064-7.848H53.126v-3.798H82.41a42.916 42.916 0 0 1 3.502 3.798zm-8.397-7.892H53.125v-3.798h17.808a39.221 39.221 0 0 1 6.583 3.798z" fill="#FAF9F4"/><path d="M53.378 10.309v41.988h-42.2a42.045 42.045 0 0 1 6.542-22.323c.126-.211.21-.38.337-.549.169-.21.296-.464.464-.675.085-.127.211-.296.296-.422.422-.633.886-1.266 1.392-1.857a27.232 27.232 0 0 1 1.73-2.025c.338-.38.676-.76 1.013-1.098.718-.76 1.435-1.434 2.195-2.152.97-.844 1.94-1.688 2.954-2.447.168-.127.38-.296.548-.422a43.42 43.42 0 0 1 7.3-4.262c.55-.254 1.098-.465 1.646-.718 4.895-1.941 10.213-3.038 15.783-3.038z" fill="#234770"/><path d="M50.677 13.685l.422-1.393.465 1.393h1.392l-1.14.844.423 1.308-1.14-.802-1.097.802.422-1.308-1.097-.844h1.35zm-3.291 3.503l.422-1.393.506 1.393h1.393l-1.14.844.422 1.308-1.181-.802-1.097.802.422-1.308-1.098-.845h1.35zm3.291 3.966l.422-1.35.465 1.35h1.392l-1.14.844.423 1.308-1.14-.802-1.097.802.422-1.266-1.097-.886h1.35zm-3.291 3.249l.422-1.392.506 1.392h1.393l-1.14.844.422 1.308-1.181-.801-1.097.801.422-1.308-1.098-.844h1.35zm3.291 3.925l.422-1.392.465 1.392h1.392l-1.14.802.423 1.35-1.14-.802-1.097.802.422-1.308-1.097-.844h1.35zm-3.291 3.292l.422-1.393.506 1.393h1.393l-1.14.801.422 1.35-1.181-.801-1.097.802.422-1.308-1.098-.844h1.35zm3.291 3.629l.422-1.393.465 1.393h1.392l-1.14.802.423 1.35-1.14-.802-1.097.802.422-1.308-1.097-.844h1.35zM47.386 39.3l.422-1.35.506 1.35h1.393l-1.14.844.422 1.308-1.181-.802-1.097.802.422-1.266-1.098-.886h1.35zm3.291 3.123l.422-1.393.465 1.393h1.392l-1.14.844.423 1.308-1.14-.802-1.097.802.422-1.308-1.097-.844h1.35zm-3.291 3.629l.422-1.393.506 1.393h1.393l-1.14.801.422 1.35-1.181-.8-1.097.8.422-1.307-1.098-.844h1.35zm-6.668-28.864l.422-1.393.507 1.393h1.392l-1.14.844.423 1.308-1.182-.802-1.097.802.422-1.308-1.097-.845h1.35zm0 7.215l.422-1.392.507 1.392h1.392l-1.14.844.423 1.308-1.182-.801-1.097.801.422-1.308-1.097-.844h1.35zm0 7.217l.422-1.393.507 1.393h1.392l-1.14.801.423 1.35-1.182-.801-1.097.802.422-1.308-1.097-.844h1.35zm0 7.68l.422-1.35.507 1.35h1.392l-1.14.844.423 1.308-1.182-.802-1.097.802.422-1.266-1.097-.886h1.35zm0 6.752l.422-1.393.507 1.393h1.392l-1.14.801.423 1.35-1.182-.8-1.097.8.422-1.307-1.097-.844h1.35zM34.05 17.188l.423-1.393.464 1.393h1.435l-1.14.844.422 1.308-1.181-.802-1.097.802.422-1.308-1.098-.845h1.35zm0 7.215l.423-1.392.464 1.392h1.435l-1.14.844.422 1.308-1.181-.801-1.097.801.422-1.308-1.098-.844h1.35zm0 7.217l.423-1.393.464 1.393h1.435l-1.14.801.422 1.35-1.181-.801-1.097.802.422-1.308-1.098-.844h1.35zm0 7.469l.423-1.393.464 1.393h1.435l-1.14.802.422 1.35-1.181-.802-1.097.802.422-1.308-1.098-.844h1.35zm0 6.963l.423-1.393.464 1.393h1.435l-1.14.801.422 1.35-1.181-.8-1.097.8.422-1.307-1.098-.844h1.35zm16.627 3.502l.422-1.35.465 1.35h1.392l-1.14.844.423 1.308-1.14-.801-1.097.801.422-1.266-1.097-.886h1.35zm-6.963-35.869l.422-1.393.465 1.393h1.392l-1.14.844.423 1.308-1.14-.802-1.139.802.464-1.308-1.097-.844h1.35zm.211 7.469l.38-1.35.507 1.35h1.392l-1.14.844.423 1.308-1.182-.802-1.097.802.422-1.266-1.097-.886h1.392zm0 7.427l.38-1.392.507 1.392h1.392l-1.14.802.423 1.35-1.182-.801-1.097.802.422-1.309-1.097-.844h1.392zm0 6.668l.38-1.393.507 1.393h1.392l-1.14.802.423 1.35-1.182-.802-1.097.802.422-1.308-1.097-.844h1.392zm0 7.174l.38-1.393.507 1.393h1.392l-1.14.844.423 1.308-1.182-.802-1.097.802.422-1.308-1.097-.844h1.392zm0 7.131l.38-1.35.507 1.35h1.392l-1.14.844.423 1.308-1.182-.801-1.097.801.422-1.266-1.097-.886h1.392zm-6.794-28.4l.422-1.35.464 1.35h1.393l-1.14.844.423 1.308-1.14-.802-1.097.802.422-1.266-1.097-.886h1.35zm0 7.427l.422-1.392.464 1.392h1.393l-1.14.802.423 1.35-1.14-.801-1.097.802.422-1.309-1.097-.844h1.35zm0 6.668l.422-1.393.464 1.393h1.393l-1.14.802.423 1.35-1.14-.802-1.097.802.422-1.308-1.097-.844h1.35zm0 7.174l.422-1.393.464 1.393h1.393l-1.14.844.423 1.308-1.14-.802-1.097.802.422-1.308-1.097-.844h1.35zm0 7.131l.422-1.35.464 1.35h1.393l-1.14.844.423 1.308-1.14-.801-1.097.801.422-1.266-1.097-.886h1.35zm.844-35.026l.422 1.309-1.14-.802-1.139.802.422-1.309-.59-.464c.548-.253 1.097-.464 1.645-.717l.127.295h1.393l-1.14.886zm-8.988 4.812l-.886-.591c.169-.127.38-.296.548-.422l.338 1.013zm1.35 1.814l.422-1.35.507 1.35h1.392l-1.14.844.423 1.308-1.182-.802-1.097.802.422-1.266-1.097-.886h1.35zm-2.954 3.249l.422-1.392.465 1.392h1.434l-1.181.844.422 1.308-1.14-.801-1.097.801.422-1.308-1.097-.844h1.35zm2.954 3.629l.422-1.35.507 1.35h1.392l-1.14.845.423 1.308-1.182-.76-1.097.76.422-1.266-1.097-.887h1.35zm-2.954 3.588l.422-1.393.465 1.393h1.434l-1.181.801.422 1.35-1.14-.801-1.097.802.422-1.308-1.097-.844h1.35zm2.954 3.629l.422-1.393.507 1.393h1.392l-1.14.802.423 1.35-1.182-.802-1.097.802.422-1.308-1.097-.844h1.35zm-2.954 3.798l.422-1.35.465 1.35h1.434l-1.181.844.422 1.308-1.14-.802-1.097.802.422-1.266-1.097-.886h1.35zm2.954 3.376l.422-1.393.507 1.393h1.392l-1.14.844.423 1.308-1.182-.802-1.097.802.422-1.308-1.097-.844h1.35zm-2.954 3.629l.422-1.393.465 1.393h1.434l-1.181.801.422 1.35-1.14-.8-1.097.8.422-1.307-1.097-.844h1.35zm-5.528-20.805l.422 1.308-1.14-.801-.97.675a27.234 27.234 0 0 1 1.73-2.026h1.14l-1.182.844zm-1.139 6.373l.422-1.393.464 1.393h1.435l-1.182.801.422 1.35-1.14-.801-1.096.802.421-1.308-1.097-.844h1.35zm0 7.427l.422-1.35.464 1.35h1.435l-1.182.844.422 1.308-1.14-.802-1.096.802.421-1.266-1.097-.886h1.35zm0 7.005l.422-1.393.464 1.393h1.435l-1.182.801.422 1.35-1.14-.8-1.096.8.421-1.307-1.097-.844h1.35zm-6.668-7.217l.422-1.392.464 1.392h1.435l-1.181.802.422 1.35-1.14-.801-1.097.802.422-1.309-1.097-.844h1.35zm0 7.217l.422-1.393.464 1.393h1.435l-1.181.801.422 1.35-1.14-.8-1.097.8.422-1.307-1.097-.844h1.35zm16.289 3.502l.422-1.35.507 1.35h1.392l-1.14.844.423 1.308-1.182-.801-1.097.801.422-1.266-1.097-.886h1.35zm-5.612-27.556l.422 1.308-1.14-.802-1.097.76c.718-.76 1.435-1.435 2.195-2.152h.76l-1.14.886zm-1.14 6.33l.422-1.392.464 1.392h1.393l-1.14.802.423 1.35-1.14-.802-1.097.802.422-1.308-1.097-.844h1.35zm0 6.921l.422-1.393.464 1.393h1.393l-1.14.802.423 1.35-1.14-.802-1.097.802.422-1.308-1.097-.844h1.35zm0 7.174l.422-1.393.464 1.393h1.393l-1.14.844.423 1.308-1.14-.802-1.097.802.422-1.308-1.097-.844h1.35zm0 7.131l.422-1.35.464 1.35h1.393l-1.14.844.423 1.308-1.14-.801-1.097.801.422-1.266-1.097-.886h1.35zm-5.528-20.129l.338 1.055-.675-.464a2.69 2.69 0 0 1 .337-.59zm1.055-1.097l-.59.422c.084-.127.21-.296.295-.422h.295zm-2.321 6.921l.422-1.393.507 1.393h1.392l-1.14.802.423 1.35-1.182-.802-1.097.802.422-1.308-1.097-.844h1.35zm0 7.174l.422-1.393.507 1.393h1.392l-1.14.844.423 1.308-1.182-.802-1.097.802.422-1.308-1.097-.844h1.35zm0 7.131l.422-1.35.507 1.35h1.392l-1.14.844.423 1.308-1.182-.801-1.097.801.422-1.266-1.097-.886h1.35z" fill="#fff"/><path d="M97.518 43.182H8.056v22.366h89.462V43.182z" fill="#FAF9F4"/><path d="M53.167 98.632c25.497 0 46.166-20.67 46.166-46.166 0-25.497-20.67-46.166-46.166-46.166C27.67 6.3 7.001 26.97 7.001 52.466c0 25.497 20.67 46.166 46.166 46.166z" stroke="#C64F47" stroke-width="6" stroke-miterlimit="10"/><path d="M17.593 49.68l1.224 2.49 2.785.423-2.026 1.94.507 2.786-2.49-1.308-2.49 1.308.464-2.785-2.025-1.941 2.785-.422 1.266-2.49zm72.245.296l1.224 2.532 2.785.38-1.983 1.983.464 2.743-2.49-1.308-2.49 1.308.465-2.743-1.984-1.983 2.785-.38 1.224-2.532zm-34.15 4.164c-.82 0-1.56-.147-2.225-.443-.65-.31-1.159-.732-1.526-1.267a3.268 3.268 0 0 1-.551-1.86c0-.69.183-1.302.55-1.838.368-.549.877-.971 1.527-1.267.664-.31 1.406-.465 2.225-.465.834 0 1.576.155 2.226.465.65.296 1.159.718 1.526 1.267a3.17 3.17 0 0 1 .551 1.838c0 .69-.184 1.31-.55 1.86-.368.535-.877.957-1.527 1.267-.65.296-1.392.444-2.226.444zm-10.237-6.929h4.875V62h-4.112l-5.638-6.718V62h-4.875V47.211h4.112l5.638 6.719v-6.72zm10.237 2.113c-.325 0-.593.106-.805.317-.198.211-.297.521-.297.93 0 .394.1.704.297.929.212.211.48.317.805.317.325 0 .587-.106.785-.317.212-.225.318-.535.318-.93 0-.408-.106-.718-.318-.93-.198-.21-.46-.316-.785-.316zm-3.878 5.873h7.757v2.747H51.81v-2.747zm16.891-7.986V62h-5.002V50.972h-2.544v-3.76h7.546z" fill="#A32121"/><path d="M35.27 73h2.36v7h-2.36v-7zm10.396 0v7h-1.94l-2.66-3.18V80h-2.3v-7h1.94l2.66 3.18V73h2.3zm7.485 7.16c-1.073 0-1.91-.29-2.51-.87-.6-.58-.9-1.393-.9-2.44V73h2.36v3.78c0 .513.09.887.27 1.12.187.233.454.35.8.35.347 0 .61-.117.79-.35.187-.233.28-.607.28-1.12V73h2.32v3.85c0 1.047-.3 1.86-.9 2.44-.6.58-1.436.87-2.51.87zm7.102 0c-.58 0-1.147-.063-1.7-.19-.547-.133-.997-.31-1.35-.53l.76-1.72c.333.193.707.35 1.12.47.413.113.81.17 1.19.17.327 0 .56-.03.7-.09.14-.067.21-.163.21-.29 0-.147-.093-.257-.28-.33-.18-.073-.48-.153-.9-.24-.54-.113-.99-.233-1.35-.36a2.367 2.367 0 0 1-.94-.64c-.267-.3-.4-.703-.4-1.21 0-.44.123-.84.37-1.2s.613-.643 1.1-.85c.493-.207 1.09-.31 1.79-.31.48 0 .95.053 1.41.16.467.1.877.25 1.23.45l-.71 1.71c-.687-.347-1.337-.52-1.95-.52-.607 0-.91.147-.91.44 0 .14.09.247.27.32.18.067.477.14.89.22.533.1.983.217 1.35.35.367.127.683.337.95.63.273.293.41.693.41 1.2 0 .44-.123.84-.37 1.2-.247.353-.617.637-1.11.85-.487.207-1.08.31-1.78.31zm8.732-1.38h-2.66l-.47 1.22h-2.4l3.06-7h2.32l3.06 7h-2.44l-.47-1.22zm-.65-1.7l-.68-1.76-.68 1.76h1.36z" fill="#FAF9F4"/></svg>