<svg width="123" height="22" fill="none" xmlns="http://www.w3.org/2000/svg"><path d="M112.237 0l3.163 6.409 7.073 1.028-5.118 4.988 1.209 7.044-6.327-3.325-6.326 3.326 1.209-7.045-5.118-4.988 7.072-1.028L112.237 0zM86.869 0l3.163 6.409 7.072 1.028-5.117 4.988 1.208 7.044-6.326-3.325-6.326 3.326 1.208-7.045-5.118-4.988 7.073-1.028L86.869 0zM61.5 0l3.163 6.409 7.073 1.028-5.118 4.988 1.208 7.044-6.326-3.325-6.326 3.326 1.208-7.045-5.118-4.988 7.073-1.028L61.5 0zM36.131 0l3.163 6.409 7.073 1.028-5.118 4.988 1.208 7.044-6.326-3.325-6.326 3.326 1.208-7.045-5.118-4.988 7.073-1.028L36.131 0zM10.762 0l3.163 6.409 7.073 1.028-5.118 4.988 1.208 7.044-6.326-3.325-6.326 3.326 1.209-7.045L.527 7.437l7.072-1.028L10.762 0z" fill="#FF3E13"/></svg>